<svg xmlns="http://www.w3.org/2000/svg" viewBox="0 0 32 32">
  <defs>
    <linearGradient id="btcGrad" x1="0" y1="0" x2="1" y2="1">
      <stop offset="0%" stop-color="#f7931a"/>
      <stop offset="100%" stop-color="#d97706"/>
    </linearGradient>
  </defs>
  <circle cx="16" cy="16" r="15" fill="url(#btcGrad)"/>
  <path d="M20.8 14.3c0.3-1.9-1.2-3-3.1-3.7l0.6-2.4-1.5-0.4-0.6 2.3c-0.4-0.1-0.8-0.2-1.2-0.3l0.6-2.3L14.2 7.2l-0.6 2.4c-0.3-0.1-0.7-0.2-1-0.2l0 0-2.1-0.5-0.4 1.6c0 0 1.1 0.3 1.1 0.3 0.6 0.2 0.7 0.6 0.7 0.9l-0.7 2.7c0 0 0.1 0 0.1 0l-0.1 0-1 3.8c-0.1 0.2-0.3 0.5-0.7 0.4 0 0-1.1-0.3-1.1-0.3l-0.7 1.8 2 0.5c0.4 0.1 0.7 0.2 1.1 0.3l-0.6 2.4 1.5 0.4 0.6-2.4c0.4 0.1 0.8 0.2 1.2 0.3l-0.6 2.4 1.5 0.4 0.6-2.4c2.5 0.5 4.4 0.3 5.2-2 0.6-1.8-0.0-2.9-1.4-3.6C19.7 16.3 20.5 15.6 20.8 14.3zM18 18.9c-0.5 1.8-3.6 0.8-4.6 0.6l0.8-3.2C15.2 16.5 18.5 17 18 18.9zM18.5 14.2c-0.4 1.7-3 0.8-3.9 0.6l0.7-2.9C16.2 12.2 18.9 12.5 18.5 14.2z" fill="#fff"/>
</svg>
